<svg id="a06878d3-5202-411e-891a-4390337d97fc" data-name="Capa 1" xmlns="http://www.w3.org/2000/svg" width="74" height="74" viewBox="0 0 74 74">
  <circle cx="37" cy="37" r="37" fill="#a2dbeb"/>
  <path d="M61.2,65a37.81,37.81,0,0,1-6.7,4.62c-.71.38-1.42.73-2.16,1.07a37.1,37.1,0,0,1-30.68,0c-.73-.34-1.45-.69-2.16-1.07A37.29,37.29,0,0,1,12.8,65a33.12,33.12,0,0,1,48.4,0Z" fill="#525353"/>
  <path d="M55.57,69c-.78.45-1.57.87-2.38,1.27a37.09,37.09,0,0,1-32.38,0c-.81-.4-1.6-.82-2.38-1.27a26.74,26.74,0,0,1,37.14,0Z"/>
  <g>
    <polygon points="28.86 55.54 24.67 55.54 21.34 65.97 25.53 65.97 28.86 55.54" fill="#bfb098"/>
    <polygon points="45.14 55.54 49.33 55.54 52.66 65.97 48.47 65.97 45.14 55.54" fill="#bfb098"/>
  </g>
  <path d="M63.08,37.25v.29A25.8,25.8,0,0,1,60.39,48.8a26.12,26.12,0,1,1-.68-24.4,26.72,26.72,0,0,1,2.13,4.86A26,26,0,0,1,63.08,37.25Z" fill="#525353"/>
  <g>
    <path d="M53.77,56.94l-.48.7a26.14,26.14,0,0,1-40.72-11,22.36,22.36,0,0,1,2.6-9.09,22.59,22.59,0,0,1,20-12A19.8,19.8,0,0,1,45.68,29L47,31.94l1.4,3.62Z" fill="#fff"/>
    <path d="M63.08,37.25v.29A25.8,25.8,0,0,1,60.39,48.8l-4-2.63-5.16-8.63L49.11,33.9c.55-4.38,4-8.45,7.46-8.45a3.41,3.41,0,0,1,.55.05,5.75,5.75,0,0,1,2.62,1.43,14.88,14.88,0,0,1,2.1,2.33A26,26,0,0,1,63.08,37.25Z" fill="#fff"/>
  </g>
  <path d="M49.35,32.66s.56-9.8,5.86-10.48S62.3,33.77,62.3,33.77Z"/>
  <path d="M59.74,26.93V37.54H51.28L49.11,33.9c.55-4.38,4-8.45,7.46-8.45A5.05,5.05,0,0,1,59.74,26.93Z" fill="#bcbebf"/>
  <path d="M49,60.43c8.17-1.13,16.27-9.74,16.27-9.74C62.2,46.35,56.32,37.37,49,31.4h0c-.67-.54-1.34-1-2-1.54-.42-.29-.85-.58-1.27-.85-.06,2.35-.19,5.77-.51,8.53l0,.24c-.43,3.46-3.41,9.53-4.94,13h0a10.45,10.45,0,0,0-.9,2.47c0,1.32-.74,7.32,8,7.32h.33a11.18,11.18,0,0,0,1.4-.12" fill="#f9b138"/>
  <path d="M45.68,29c-4.59-9-13-8.54-16.62-7.2-4.87,1.79-8.69,6.41-8.38,10.61"/>
  <path d="M38.73,26a22.8,22.8,0,0,1,7,3c0,1.17-.08,2.62-.16,4.11s-.19,3-.35,4.42h-30a22.59,22.59,0,0,1,20-12,16.1,16.1,0,0,1,3.6.42" fill="#bcbebf"/>
  <path d="M41.77,52.34c-3.62-.74-10.69-5.1-10.69-5.1S36,53.9,42.67,55.79Z"/>
  <path d="M56,48,49,60.43l-1.4.12h-.33c-8.72,0-8-6-8-7.32a10.45,10.45,0,0,1,.9-2.47h0c1.41-3.1,9.94-9.32,10.28-15.84S56,48,56,48Z"/>
  <path d="M65.28,50.69h0C65,51,57.05,59.31,49,60.43c-2.89-2.21-3.85-4.32-3.34-7a19.05,19.05,0,0,1,2.76-6A15.11,15.11,0,0,0,49,31.4h0C56.32,37.37,62.2,46.35,65.28,50.69Z" fill="#e1006d"/>
  <path d="M65.28,50.69h0C65,51,57.05,59.31,49,60.43c-2.89-2.21-3.85-4.32-3.34-7h0C58.46,55.34,65.11,50.81,65.28,50.69Z" fill="#9d1d54"/>
  <g>
    <path d="M45.68,29c0,1.17-.08,2.62-.16,4.11s-.19,3-.35,4.42H39.05L38.73,34V26A22.8,22.8,0,0,1,45.68,29Z" fill="#e2dedc"/>
    <path d="M63.08,37.25v.29h-6v-12a5.75,5.75,0,0,1,2.62,1.43,14.88,14.88,0,0,1,2.1,2.33A26,26,0,0,1,63.08,37.25Z" fill="#e2dedc"/>
  </g>
  <polygon points="41.6 36.8 38.64 27.5 36.35 34.92 26.8 37.53 39.55 40.25 41.6 36.8" fill="#919494"/>
  <circle cx="38.73" cy="37.53" r="3.54"/>
  <polygon points="59.73 30.75 58.36 36.82 61.12 36.86 59.73 30.75" fill="#919494"/>
  <ellipse cx="59.74" cy="37.53" rx="1.44" ry="2.58"/>
  <ellipse cx="59.74" cy="36.2" rx="0.56" ry="1" fill="#fff"/>
  <circle cx="38.73" cy="35.81" r="1.25" fill="#e2dedc"/>
  <path d="M53.19,66v4.31a37.09,37.09,0,0,1-32.38,0V66Z" fill="#bfb098"/>
  <path d="M53.19,66v4.31A36.89,36.89,0,0,1,37,74V66Z" fill="#aa9676"/>
  <path d="M54.5,69.61c-.71.38-1.42.73-2.16,1.07l-.31-4H22l-.31,4c-.73-.34-1.45-.69-2.16-1.07l.42-4.69H54.08Z" fill="#8a7460"/>
</svg>
